# Alias OBJ Model File
# Exported from SketchUp, (c) 2000-2012 Trimble Navigation Limited
# File units = meters

mtllib icecream.mtl

g Mesh1 Model

usemtl _2
v 0.428642 0 -0
vt -1.00529 0
vn 0 -1 -0
v 0 0 -0
vt 0 0
v 0 0 -0.3
vt 0 0.984252
v 0.428642 0 -0.3
vt -1.00529 0.984252
f 1/1/1 2/2/1 3/3/1 4/4/1 

usemtl _1
vn 0 0 1
vt 0.996841 0
v 0.428642 0.19 -0
vt 0.996841 1.00103
v 0 0.19 -0
vt 0 1.00103
f 2/2/2 1/5/2 5/6/2 6/7/2 

usemtl _3
vn 1 0 -0
vt 0.967742 0
v 0.428642 0.19 -0.3
vt 0.967742 1.00579
vt 0 1.00579
f 1/2/3 4/8/3 7/9/3 5/10/3 

usemtl _1
vt -0.996841 0
vn 0 0 -1
v 0 0.19 -0.3
vt -0.996841 1.00103
f 4/11/4 3/2/4 8/7/4 7/12/4 

usemtl _3
vt -0.967742 0
vn -1 0 -0
vt -0.967742 1.00579
f 3/13/5 2/2/5 6/10/5 8/14/5 

usemtl _2
vn 0 1 -0
vt 1.00529 0
vt 1.00529 0.984252
f 6/2/6 5/15/6 7/16/6 8/3/6 

